<mxfile host="65bd71144e">
    <diagram id="-AhTFXiwVNk4hzFyMYtp" name="Page-1">
        <mxGraphModel dx="1171" dy="656" grid="0" gridSize="10" guides="1" tooltips="1" connect="1" arrows="1" fold="1" page="1" pageScale="1" pageWidth="2000" pageHeight="2000" math="0" shadow="0">
            <root>
                <mxCell id="0"/>
                <mxCell id="1" parent="0"/>
                <mxCell id="xQEpdQuimWYe1z7LgiUK-31" value="user_profile" style="shape=table;startSize=30;container=1;collapsible=1;childLayout=tableLayout;fixedRows=1;rowLines=0;fontStyle=1;align=center;resizeLast=1;fillColor=#eeeeee;strokeColor=#36393d;rounded=1;" parent="1" vertex="1">
                    <mxGeometry x="47" y="42" width="210" height="214" as="geometry">
                        <mxRectangle x="280" y="300" width="70" height="30" as="alternateBounds"/>
                    </mxGeometry>
                </mxCell>
                <mxCell id="xQEpdQuimWYe1z7LgiUK-32" value="" style="shape=tableRow;horizontal=0;startSize=0;swimlaneHead=0;swimlaneBody=0;fillColor=none;collapsible=0;dropTarget=0;points=[[0,0.5],[1,0.5]];portConstraint=eastwest;top=0;left=0;right=0;bottom=1;" parent="xQEpdQuimWYe1z7LgiUK-31" vertex="1">
                    <mxGeometry y="30" width="210" height="28" as="geometry"/>
                </mxCell>
                <mxCell id="xQEpdQuimWYe1z7LgiUK-33" value="PK" style="shape=partialRectangle;connectable=0;fillColor=none;top=0;left=0;bottom=0;right=0;fontStyle=1;overflow=hidden;" parent="xQEpdQuimWYe1z7LgiUK-32" vertex="1">
                    <mxGeometry width="30" height="28" as="geometry">
                        <mxRectangle width="30" height="28" as="alternateBounds"/>
                    </mxGeometry>
                </mxCell>
                <mxCell id="xQEpdQuimWYe1z7LgiUK-34" value="id" style="shape=partialRectangle;connectable=0;fillColor=none;top=0;left=0;bottom=0;right=0;align=left;spacingLeft=6;fontStyle=0;overflow=hidden;" parent="xQEpdQuimWYe1z7LgiUK-32" vertex="1">
                    <mxGeometry x="30" width="100" height="28" as="geometry">
                        <mxRectangle width="100" height="28" as="alternateBounds"/>
                    </mxGeometry>
                </mxCell>
                <mxCell id="xQEpdQuimWYe1z7LgiUK-35" value="BIGSERIAL" style="shape=partialRectangle;connectable=0;fillColor=none;top=0;left=0;bottom=0;right=0;align=left;spacingLeft=6;fontStyle=0;overflow=hidden;" parent="xQEpdQuimWYe1z7LgiUK-32" vertex="1">
                    <mxGeometry x="130" width="80" height="28" as="geometry">
                        <mxRectangle width="80" height="28" as="alternateBounds"/>
                    </mxGeometry>
                </mxCell>
                <mxCell id="xQEpdQuimWYe1z7LgiUK-36" value="" style="shape=tableRow;horizontal=0;startSize=0;swimlaneHead=0;swimlaneBody=0;fillColor=none;collapsible=0;dropTarget=0;points=[[0,0.5],[1,0.5]];portConstraint=eastwest;top=0;left=0;right=0;bottom=0;" parent="xQEpdQuimWYe1z7LgiUK-31" vertex="1">
                    <mxGeometry y="58" width="210" height="28" as="geometry"/>
                </mxCell>
                <mxCell id="xQEpdQuimWYe1z7LgiUK-37" value="" style="shape=partialRectangle;connectable=0;fillColor=none;top=0;left=0;bottom=0;right=0;editable=1;overflow=hidden;" parent="xQEpdQuimWYe1z7LgiUK-36" vertex="1">
                    <mxGeometry width="30" height="28" as="geometry">
                        <mxRectangle width="30" height="28" as="alternateBounds"/>
                    </mxGeometry>
                </mxCell>
                <mxCell id="xQEpdQuimWYe1z7LgiUK-38" value="first_name" style="shape=partialRectangle;connectable=0;fillColor=none;top=0;left=0;bottom=0;right=0;align=left;spacingLeft=6;overflow=hidden;" parent="xQEpdQuimWYe1z7LgiUK-36" vertex="1">
                    <mxGeometry x="30" width="100" height="28" as="geometry">
                        <mxRectangle width="100" height="28" as="alternateBounds"/>
                    </mxGeometry>
                </mxCell>
                <mxCell id="xQEpdQuimWYe1z7LgiUK-39" value="TEXT" style="shape=partialRectangle;connectable=0;fillColor=none;top=0;left=0;bottom=0;right=0;align=left;spacingLeft=6;overflow=hidden;" parent="xQEpdQuimWYe1z7LgiUK-36" vertex="1">
                    <mxGeometry x="130" width="80" height="28" as="geometry">
                        <mxRectangle width="80" height="28" as="alternateBounds"/>
                    </mxGeometry>
                </mxCell>
                <mxCell id="xQEpdQuimWYe1z7LgiUK-40" value="" style="shape=tableRow;horizontal=0;startSize=0;swimlaneHead=0;swimlaneBody=0;fillColor=none;collapsible=0;dropTarget=0;points=[[0,0.5],[1,0.5]];portConstraint=eastwest;top=0;left=0;right=0;bottom=0;" parent="xQEpdQuimWYe1z7LgiUK-31" vertex="1">
                    <mxGeometry y="86" width="210" height="32" as="geometry"/>
                </mxCell>
                <mxCell id="xQEpdQuimWYe1z7LgiUK-41" value="" style="shape=partialRectangle;connectable=0;fillColor=none;top=0;left=0;bottom=0;right=0;editable=1;overflow=hidden;" parent="xQEpdQuimWYe1z7LgiUK-40" vertex="1">
                    <mxGeometry width="30" height="32" as="geometry">
                        <mxRectangle width="30" height="32" as="alternateBounds"/>
                    </mxGeometry>
                </mxCell>
                <mxCell id="xQEpdQuimWYe1z7LgiUK-42" value="last_name" style="shape=partialRectangle;connectable=0;fillColor=none;top=0;left=0;bottom=0;right=0;align=left;spacingLeft=6;overflow=hidden;" parent="xQEpdQuimWYe1z7LgiUK-40" vertex="1">
                    <mxGeometry x="30" width="100" height="32" as="geometry">
                        <mxRectangle width="100" height="32" as="alternateBounds"/>
                    </mxGeometry>
                </mxCell>
                <mxCell id="xQEpdQuimWYe1z7LgiUK-43" value="TEXT" style="shape=partialRectangle;connectable=0;fillColor=none;top=0;left=0;bottom=0;right=0;align=left;spacingLeft=6;overflow=hidden;" parent="xQEpdQuimWYe1z7LgiUK-40" vertex="1">
                    <mxGeometry x="130" width="80" height="32" as="geometry">
                        <mxRectangle width="80" height="32" as="alternateBounds"/>
                    </mxGeometry>
                </mxCell>
                <mxCell id="xQEpdQuimWYe1z7LgiUK-52" style="shape=tableRow;horizontal=0;startSize=0;swimlaneHead=0;swimlaneBody=0;fillColor=none;collapsible=0;dropTarget=0;points=[[0,0.5],[1,0.5]];portConstraint=eastwest;top=0;left=0;right=0;bottom=0;" parent="xQEpdQuimWYe1z7LgiUK-31" vertex="1">
                    <mxGeometry y="118" width="210" height="32" as="geometry"/>
                </mxCell>
                <mxCell id="xQEpdQuimWYe1z7LgiUK-53" value="UN1" style="shape=partialRectangle;connectable=0;fillColor=none;top=0;left=0;bottom=0;right=0;editable=1;overflow=hidden;fontStyle=1" parent="xQEpdQuimWYe1z7LgiUK-52" vertex="1">
                    <mxGeometry width="30" height="32" as="geometry">
                        <mxRectangle width="30" height="32" as="alternateBounds"/>
                    </mxGeometry>
                </mxCell>
                <mxCell id="xQEpdQuimWYe1z7LgiUK-54" value="email" style="shape=partialRectangle;connectable=0;fillColor=none;top=0;left=0;bottom=0;right=0;align=left;spacingLeft=6;overflow=hidden;" parent="xQEpdQuimWYe1z7LgiUK-52" vertex="1">
                    <mxGeometry x="30" width="100" height="32" as="geometry">
                        <mxRectangle width="100" height="32" as="alternateBounds"/>
                    </mxGeometry>
                </mxCell>
                <mxCell id="xQEpdQuimWYe1z7LgiUK-55" value="TEXT" style="shape=partialRectangle;connectable=0;fillColor=none;top=0;left=0;bottom=0;right=0;align=left;spacingLeft=6;overflow=hidden;" parent="xQEpdQuimWYe1z7LgiUK-52" vertex="1">
                    <mxGeometry x="130" width="80" height="32" as="geometry">
                        <mxRectangle width="80" height="32" as="alternateBounds"/>
                    </mxGeometry>
                </mxCell>
                <mxCell id="xQEpdQuimWYe1z7LgiUK-56" style="shape=tableRow;horizontal=0;startSize=0;swimlaneHead=0;swimlaneBody=0;fillColor=none;collapsible=0;dropTarget=0;points=[[0,0.5],[1,0.5]];portConstraint=eastwest;top=0;left=0;right=0;bottom=0;" parent="xQEpdQuimWYe1z7LgiUK-31" vertex="1">
                    <mxGeometry y="150" width="210" height="32" as="geometry"/>
                </mxCell>
                <mxCell id="xQEpdQuimWYe1z7LgiUK-57" style="shape=partialRectangle;connectable=0;fillColor=none;top=0;left=0;bottom=0;right=0;editable=1;overflow=hidden;fontStyle=1" parent="xQEpdQuimWYe1z7LgiUK-56" vertex="1">
                    <mxGeometry width="30" height="32" as="geometry">
                        <mxRectangle width="30" height="32" as="alternateBounds"/>
                    </mxGeometry>
                </mxCell>
                <mxCell id="xQEpdQuimWYe1z7LgiUK-58" value="gender" style="shape=partialRectangle;connectable=0;fillColor=none;top=0;left=0;bottom=0;right=0;align=left;spacingLeft=6;overflow=hidden;" parent="xQEpdQuimWYe1z7LgiUK-56" vertex="1">
                    <mxGeometry x="30" width="100" height="32" as="geometry">
                        <mxRectangle width="100" height="32" as="alternateBounds"/>
                    </mxGeometry>
                </mxCell>
                <mxCell id="xQEpdQuimWYe1z7LgiUK-59" value="TEXT" style="shape=partialRectangle;connectable=0;fillColor=none;top=0;left=0;bottom=0;right=0;align=left;spacingLeft=6;overflow=hidden;" parent="xQEpdQuimWYe1z7LgiUK-56" vertex="1">
                    <mxGeometry x="130" width="80" height="32" as="geometry">
                        <mxRectangle width="80" height="32" as="alternateBounds"/>
                    </mxGeometry>
                </mxCell>
                <mxCell id="xQEpdQuimWYe1z7LgiUK-60" style="shape=tableRow;horizontal=0;startSize=0;swimlaneHead=0;swimlaneBody=0;fillColor=none;collapsible=0;dropTarget=0;points=[[0,0.5],[1,0.5]];portConstraint=eastwest;top=0;left=0;right=0;bottom=0;" parent="xQEpdQuimWYe1z7LgiUK-31" vertex="1">
                    <mxGeometry y="182" width="210" height="32" as="geometry"/>
                </mxCell>
                <mxCell id="xQEpdQuimWYe1z7LgiUK-61" style="shape=partialRectangle;connectable=0;fillColor=none;top=0;left=0;bottom=0;right=0;editable=1;overflow=hidden;fontStyle=1" parent="xQEpdQuimWYe1z7LgiUK-60" vertex="1">
                    <mxGeometry width="30" height="32" as="geometry">
                        <mxRectangle width="30" height="32" as="alternateBounds"/>
                    </mxGeometry>
                </mxCell>
                <mxCell id="xQEpdQuimWYe1z7LgiUK-62" value="created_at" style="shape=partialRectangle;connectable=0;fillColor=none;top=0;left=0;bottom=0;right=0;align=left;spacingLeft=6;overflow=hidden;" parent="xQEpdQuimWYe1z7LgiUK-60" vertex="1">
                    <mxGeometry x="30" width="100" height="32" as="geometry">
                        <mxRectangle width="100" height="32" as="alternateBounds"/>
                    </mxGeometry>
                </mxCell>
                <mxCell id="xQEpdQuimWYe1z7LgiUK-63" value="TIMESTAMP" style="shape=partialRectangle;connectable=0;fillColor=none;top=0;left=0;bottom=0;right=0;align=left;spacingLeft=6;overflow=hidden;" parent="xQEpdQuimWYe1z7LgiUK-60" vertex="1">
                    <mxGeometry x="130" width="80" height="32" as="geometry">
                        <mxRectangle width="80" height="32" as="alternateBounds"/>
                    </mxGeometry>
                </mxCell>
                <mxCell id="xQEpdQuimWYe1z7LgiUK-89" value="youtube_account" style="shape=table;startSize=30;container=1;collapsible=1;childLayout=tableLayout;fixedRows=1;rowLines=0;fontStyle=1;align=center;resizeLast=1;fillColor=#eeeeee;strokeColor=#36393d;rounded=1;" parent="1" vertex="1">
                    <mxGeometry x="430" y="186" width="210" height="90" as="geometry">
                        <mxRectangle x="280" y="300" width="70" height="30" as="alternateBounds"/>
                    </mxGeometry>
                </mxCell>
                <mxCell id="xQEpdQuimWYe1z7LgiUK-90" value="" style="shape=tableRow;horizontal=0;startSize=0;swimlaneHead=0;swimlaneBody=0;fillColor=none;collapsible=0;dropTarget=0;points=[[0,0.5],[1,0.5]];portConstraint=eastwest;top=0;left=0;right=0;bottom=1;" parent="xQEpdQuimWYe1z7LgiUK-89" vertex="1">
                    <mxGeometry y="30" width="210" height="28" as="geometry"/>
                </mxCell>
                <mxCell id="xQEpdQuimWYe1z7LgiUK-91" value="PK, FK" style="shape=partialRectangle;connectable=0;fillColor=none;top=0;left=0;bottom=0;right=0;fontStyle=1;overflow=hidden;" parent="xQEpdQuimWYe1z7LgiUK-90" vertex="1">
                    <mxGeometry width="50" height="28" as="geometry">
                        <mxRectangle width="50" height="28" as="alternateBounds"/>
                    </mxGeometry>
                </mxCell>
                <mxCell id="xQEpdQuimWYe1z7LgiUK-92" value="id" style="shape=partialRectangle;connectable=0;fillColor=none;top=0;left=0;bottom=0;right=0;align=left;spacingLeft=6;fontStyle=0;overflow=hidden;" parent="xQEpdQuimWYe1z7LgiUK-90" vertex="1">
                    <mxGeometry x="50" width="80" height="28" as="geometry">
                        <mxRectangle width="80" height="28" as="alternateBounds"/>
                    </mxGeometry>
                </mxCell>
                <mxCell id="xQEpdQuimWYe1z7LgiUK-93" value="BIGSERIAL" style="shape=partialRectangle;connectable=0;fillColor=none;top=0;left=0;bottom=0;right=0;align=left;spacingLeft=6;fontStyle=0;overflow=hidden;" parent="xQEpdQuimWYe1z7LgiUK-90" vertex="1">
                    <mxGeometry x="130" width="80" height="28" as="geometry">
                        <mxRectangle width="80" height="28" as="alternateBounds"/>
                    </mxGeometry>
                </mxCell>
                <mxCell id="xQEpdQuimWYe1z7LgiUK-110" style="shape=tableRow;horizontal=0;startSize=0;swimlaneHead=0;swimlaneBody=0;fillColor=none;collapsible=0;dropTarget=0;points=[[0,0.5],[1,0.5]];portConstraint=eastwest;top=0;left=0;right=0;bottom=0;" parent="xQEpdQuimWYe1z7LgiUK-89" vertex="1">
                    <mxGeometry y="58" width="210" height="32" as="geometry"/>
                </mxCell>
                <mxCell id="xQEpdQuimWYe1z7LgiUK-111" style="shape=partialRectangle;connectable=0;fillColor=none;top=0;left=0;bottom=0;right=0;editable=1;overflow=hidden;fontStyle=1" parent="xQEpdQuimWYe1z7LgiUK-110" vertex="1">
                    <mxGeometry width="50" height="32" as="geometry">
                        <mxRectangle width="50" height="32" as="alternateBounds"/>
                    </mxGeometry>
                </mxCell>
                <mxCell id="xQEpdQuimWYe1z7LgiUK-112" value="created_at" style="shape=partialRectangle;connectable=0;fillColor=none;top=0;left=0;bottom=0;right=0;align=left;spacingLeft=6;overflow=hidden;" parent="xQEpdQuimWYe1z7LgiUK-110" vertex="1">
                    <mxGeometry x="50" width="80" height="32" as="geometry">
                        <mxRectangle width="80" height="32" as="alternateBounds"/>
                    </mxGeometry>
                </mxCell>
                <mxCell id="xQEpdQuimWYe1z7LgiUK-113" value="TIMESTAMP" style="shape=partialRectangle;connectable=0;fillColor=none;top=0;left=0;bottom=0;right=0;align=left;spacingLeft=6;overflow=hidden;" parent="xQEpdQuimWYe1z7LgiUK-110" vertex="1">
                    <mxGeometry x="130" width="80" height="32" as="geometry">
                        <mxRectangle width="80" height="32" as="alternateBounds"/>
                    </mxGeometry>
                </mxCell>
                <mxCell id="xQEpdQuimWYe1z7LgiUK-115" value="" style="edgeStyle=elbowEdgeStyle;fontSize=12;html=1;endArrow=ERzeroToOne;startArrow=ERmandOne;exitX=1;exitY=0.5;exitDx=0;exitDy=0;entryX=0;entryY=0.5;entryDx=0;entryDy=0;strokeWidth=1;rounded=1;endSize=15;startSize=15;" parent="1" source="xQEpdQuimWYe1z7LgiUK-32" target="xQEpdQuimWYe1z7LgiUK-90" edge="1">
                    <mxGeometry width="100" height="100" relative="1" as="geometry">
                        <mxPoint x="370" y="470" as="sourcePoint"/>
                        <mxPoint x="470" y="370" as="targetPoint"/>
                    </mxGeometry>
                </mxCell>
                <mxCell id="xQEpdQuimWYe1z7LgiUK-116" value="youtube_channel" style="shape=table;startSize=30;container=1;collapsible=1;childLayout=tableLayout;fixedRows=1;rowLines=0;fontStyle=1;align=center;resizeLast=1;fillColor=#eeeeee;strokeColor=#36393d;rounded=1;" parent="1" vertex="1">
                    <mxGeometry x="470" y="390" width="250" height="148" as="geometry">
                        <mxRectangle x="280" y="300" width="70" height="30" as="alternateBounds"/>
                    </mxGeometry>
                </mxCell>
                <mxCell id="xQEpdQuimWYe1z7LgiUK-117" value="" style="shape=tableRow;horizontal=0;startSize=0;swimlaneHead=0;swimlaneBody=0;fillColor=none;collapsible=0;dropTarget=0;points=[[0,0.5],[1,0.5]];portConstraint=eastwest;top=0;left=0;right=0;bottom=1;" parent="xQEpdQuimWYe1z7LgiUK-116" vertex="1">
                    <mxGeometry y="30" width="250" height="28" as="geometry"/>
                </mxCell>
                <mxCell id="xQEpdQuimWYe1z7LgiUK-118" value="PK" style="shape=partialRectangle;connectable=0;fillColor=none;top=0;left=0;bottom=0;right=0;fontStyle=1;overflow=hidden;" parent="xQEpdQuimWYe1z7LgiUK-117" vertex="1">
                    <mxGeometry width="50" height="28" as="geometry">
                        <mxRectangle width="50" height="28" as="alternateBounds"/>
                    </mxGeometry>
                </mxCell>
                <mxCell id="xQEpdQuimWYe1z7LgiUK-119" value="id" style="shape=partialRectangle;connectable=0;fillColor=none;top=0;left=0;bottom=0;right=0;align=left;spacingLeft=6;fontStyle=0;overflow=hidden;" parent="xQEpdQuimWYe1z7LgiUK-117" vertex="1">
                    <mxGeometry x="50" width="120" height="28" as="geometry">
                        <mxRectangle width="120" height="28" as="alternateBounds"/>
                    </mxGeometry>
                </mxCell>
                <mxCell id="xQEpdQuimWYe1z7LgiUK-120" value="BIGSERIAL" style="shape=partialRectangle;connectable=0;fillColor=none;top=0;left=0;bottom=0;right=0;align=left;spacingLeft=6;fontStyle=0;overflow=hidden;" parent="xQEpdQuimWYe1z7LgiUK-117" vertex="1">
                    <mxGeometry x="170" width="80" height="28" as="geometry">
                        <mxRectangle width="80" height="28" as="alternateBounds"/>
                    </mxGeometry>
                </mxCell>
                <mxCell id="xQEpdQuimWYe1z7LgiUK-121" value="" style="shape=tableRow;horizontal=0;startSize=0;swimlaneHead=0;swimlaneBody=0;fillColor=none;collapsible=0;dropTarget=0;points=[[0,0.5],[1,0.5]];portConstraint=eastwest;top=0;left=0;right=0;bottom=0;" parent="xQEpdQuimWYe1z7LgiUK-116" vertex="1">
                    <mxGeometry y="58" width="250" height="28" as="geometry"/>
                </mxCell>
                <mxCell id="xQEpdQuimWYe1z7LgiUK-122" value="FK" style="shape=partialRectangle;connectable=0;fillColor=none;top=0;left=0;bottom=0;right=0;editable=1;overflow=hidden;fontStyle=1" parent="xQEpdQuimWYe1z7LgiUK-121" vertex="1">
                    <mxGeometry width="50" height="28" as="geometry">
                        <mxRectangle width="50" height="28" as="alternateBounds"/>
                    </mxGeometry>
                </mxCell>
                <mxCell id="xQEpdQuimWYe1z7LgiUK-123" value="youtube_account_id" style="shape=partialRectangle;connectable=0;fillColor=none;top=0;left=0;bottom=0;right=0;align=left;spacingLeft=6;overflow=hidden;" parent="xQEpdQuimWYe1z7LgiUK-121" vertex="1">
                    <mxGeometry x="50" width="120" height="28" as="geometry">
                        <mxRectangle width="120" height="28" as="alternateBounds"/>
                    </mxGeometry>
                </mxCell>
                <mxCell id="xQEpdQuimWYe1z7LgiUK-124" value="TEXT" style="shape=partialRectangle;connectable=0;fillColor=none;top=0;left=0;bottom=0;right=0;align=left;spacingLeft=6;overflow=hidden;" parent="xQEpdQuimWYe1z7LgiUK-121" vertex="1">
                    <mxGeometry x="170" width="80" height="28" as="geometry">
                        <mxRectangle width="80" height="28" as="alternateBounds"/>
                    </mxGeometry>
                </mxCell>
                <mxCell id="xQEpdQuimWYe1z7LgiUK-125" value="" style="shape=tableRow;horizontal=0;startSize=0;swimlaneHead=0;swimlaneBody=0;fillColor=none;collapsible=0;dropTarget=0;points=[[0,0.5],[1,0.5]];portConstraint=eastwest;top=0;left=0;right=0;bottom=0;" parent="xQEpdQuimWYe1z7LgiUK-116" vertex="1">
                    <mxGeometry y="86" width="250" height="32" as="geometry"/>
                </mxCell>
                <mxCell id="xQEpdQuimWYe1z7LgiUK-126" value="UN1" style="shape=partialRectangle;connectable=0;fillColor=none;top=0;left=0;bottom=0;right=0;editable=1;overflow=hidden;fontStyle=1" parent="xQEpdQuimWYe1z7LgiUK-125" vertex="1">
                    <mxGeometry width="50" height="32" as="geometry">
                        <mxRectangle width="50" height="32" as="alternateBounds"/>
                    </mxGeometry>
                </mxCell>
                <mxCell id="xQEpdQuimWYe1z7LgiUK-127" value="channel_name" style="shape=partialRectangle;connectable=0;fillColor=none;top=0;left=0;bottom=0;right=0;align=left;spacingLeft=6;overflow=hidden;" parent="xQEpdQuimWYe1z7LgiUK-125" vertex="1">
                    <mxGeometry x="50" width="120" height="32" as="geometry">
                        <mxRectangle width="120" height="32" as="alternateBounds"/>
                    </mxGeometry>
                </mxCell>
                <mxCell id="xQEpdQuimWYe1z7LgiUK-128" value="TEXT" style="shape=partialRectangle;connectable=0;fillColor=none;top=0;left=0;bottom=0;right=0;align=left;spacingLeft=6;overflow=hidden;" parent="xQEpdQuimWYe1z7LgiUK-125" vertex="1">
                    <mxGeometry x="170" width="80" height="32" as="geometry">
                        <mxRectangle width="80" height="32" as="alternateBounds"/>
                    </mxGeometry>
                </mxCell>
                <mxCell id="xQEpdQuimWYe1z7LgiUK-129" style="shape=tableRow;horizontal=0;startSize=0;swimlaneHead=0;swimlaneBody=0;fillColor=none;collapsible=0;dropTarget=0;points=[[0,0.5],[1,0.5]];portConstraint=eastwest;top=0;left=0;right=0;bottom=0;" parent="xQEpdQuimWYe1z7LgiUK-116" vertex="1">
                    <mxGeometry y="118" width="250" height="30" as="geometry"/>
                </mxCell>
                <mxCell id="xQEpdQuimWYe1z7LgiUK-130" value="" style="shape=partialRectangle;connectable=0;fillColor=none;top=0;left=0;bottom=0;right=0;editable=1;overflow=hidden;fontStyle=1" parent="xQEpdQuimWYe1z7LgiUK-129" vertex="1">
                    <mxGeometry width="50" height="30" as="geometry">
                        <mxRectangle width="50" height="30" as="alternateBounds"/>
                    </mxGeometry>
                </mxCell>
                <mxCell id="xQEpdQuimWYe1z7LgiUK-131" value="created_at" style="shape=partialRectangle;connectable=0;fillColor=none;top=0;left=0;bottom=0;right=0;align=left;spacingLeft=6;overflow=hidden;" parent="xQEpdQuimWYe1z7LgiUK-129" vertex="1">
                    <mxGeometry x="50" width="120" height="30" as="geometry">
                        <mxRectangle width="120" height="30" as="alternateBounds"/>
                    </mxGeometry>
                </mxCell>
                <mxCell id="xQEpdQuimWYe1z7LgiUK-132" value="TIMESTAMP" style="shape=partialRectangle;connectable=0;fillColor=none;top=0;left=0;bottom=0;right=0;align=left;spacingLeft=6;overflow=hidden;" parent="xQEpdQuimWYe1z7LgiUK-129" vertex="1">
                    <mxGeometry x="170" width="80" height="30" as="geometry">
                        <mxRectangle width="80" height="30" as="alternateBounds"/>
                    </mxGeometry>
                </mxCell>
                <mxCell id="xQEpdQuimWYe1z7LgiUK-166" value="" style="edgeStyle=orthogonalEdgeStyle;fontSize=12;html=1;endArrow=ERoneToMany;startArrow=ERmandOne;rounded=1;startSize=15;endSize=15;strokeWidth=1;exitX=0.666;exitY=1.044;exitDx=0;exitDy=0;exitPerimeter=0;entryX=0.4;entryY=0;entryDx=0;entryDy=0;entryPerimeter=0;" parent="1" source="xQEpdQuimWYe1z7LgiUK-110" target="xQEpdQuimWYe1z7LgiUK-116" edge="1">
                    <mxGeometry width="100" height="100" relative="1" as="geometry">
                        <mxPoint x="570" y="280" as="sourcePoint"/>
                        <mxPoint x="610" y="360" as="targetPoint"/>
                        <Array as="points">
                            <mxPoint x="570" y="310"/>
                            <mxPoint x="570" y="310"/>
                        </Array>
                    </mxGeometry>
                </mxCell>
                <mxCell id="xQEpdQuimWYe1z7LgiUK-167" value="channel_subscriber" style="shape=table;startSize=30;container=1;collapsible=1;childLayout=tableLayout;fixedRows=1;rowLines=0;fontStyle=1;align=center;resizeLast=1;fillColor=#eeeeee;strokeColor=#36393D;rounded=1;" parent="1" vertex="1">
                    <mxGeometry x="950" y="489" width="250" height="120" as="geometry">
                        <mxRectangle x="280" y="300" width="70" height="30" as="alternateBounds"/>
                    </mxGeometry>
                </mxCell>
                <mxCell id="xQEpdQuimWYe1z7LgiUK-172" value="" style="shape=tableRow;horizontal=0;startSize=0;swimlaneHead=0;swimlaneBody=0;fillColor=none;collapsible=0;dropTarget=0;points=[[0,0.5],[1,0.5]];portConstraint=eastwest;top=0;left=0;right=0;bottom=0;" parent="xQEpdQuimWYe1z7LgiUK-167" vertex="1">
                    <mxGeometry y="30" width="250" height="28" as="geometry"/>
                </mxCell>
                <mxCell id="xQEpdQuimWYe1z7LgiUK-173" value="PK,FK" style="shape=partialRectangle;connectable=0;fillColor=none;top=0;left=0;bottom=0;right=0;editable=1;overflow=hidden;fontStyle=1" parent="xQEpdQuimWYe1z7LgiUK-172" vertex="1">
                    <mxGeometry width="50" height="28" as="geometry">
                        <mxRectangle width="50" height="28" as="alternateBounds"/>
                    </mxGeometry>
                </mxCell>
                <mxCell id="xQEpdQuimWYe1z7LgiUK-174" value="youtube_account_id" style="shape=partialRectangle;connectable=0;fillColor=none;top=0;left=0;bottom=0;right=0;align=left;spacingLeft=6;overflow=hidden;" parent="xQEpdQuimWYe1z7LgiUK-172" vertex="1">
                    <mxGeometry x="50" width="120" height="28" as="geometry">
                        <mxRectangle width="120" height="28" as="alternateBounds"/>
                    </mxGeometry>
                </mxCell>
                <mxCell id="xQEpdQuimWYe1z7LgiUK-175" value="BIGINT" style="shape=partialRectangle;connectable=0;fillColor=none;top=0;left=0;bottom=0;right=0;align=left;spacingLeft=6;overflow=hidden;" parent="xQEpdQuimWYe1z7LgiUK-172" vertex="1">
                    <mxGeometry x="170" width="80" height="28" as="geometry">
                        <mxRectangle width="80" height="28" as="alternateBounds"/>
                    </mxGeometry>
                </mxCell>
                <mxCell id="xQEpdQuimWYe1z7LgiUK-176" value="" style="shape=tableRow;horizontal=0;startSize=0;swimlaneHead=0;swimlaneBody=0;fillColor=none;collapsible=0;dropTarget=0;points=[[0,0.5],[1,0.5]];portConstraint=eastwest;top=0;left=0;right=0;bottom=0;" parent="xQEpdQuimWYe1z7LgiUK-167" vertex="1">
                    <mxGeometry y="58" width="250" height="32" as="geometry"/>
                </mxCell>
                <mxCell id="xQEpdQuimWYe1z7LgiUK-177" value="PK,FK" style="shape=partialRectangle;connectable=0;fillColor=none;top=0;left=0;bottom=0;right=0;editable=1;overflow=hidden;fontStyle=1" parent="xQEpdQuimWYe1z7LgiUK-176" vertex="1">
                    <mxGeometry width="50" height="32" as="geometry">
                        <mxRectangle width="50" height="32" as="alternateBounds"/>
                    </mxGeometry>
                </mxCell>
                <mxCell id="xQEpdQuimWYe1z7LgiUK-178" value="youtube_channel_id" style="shape=partialRectangle;connectable=0;fillColor=none;top=0;left=0;bottom=0;right=0;align=left;spacingLeft=6;overflow=hidden;" parent="xQEpdQuimWYe1z7LgiUK-176" vertex="1">
                    <mxGeometry x="50" width="120" height="32" as="geometry">
                        <mxRectangle width="120" height="32" as="alternateBounds"/>
                    </mxGeometry>
                </mxCell>
                <mxCell id="xQEpdQuimWYe1z7LgiUK-179" value="BIGINT" style="shape=partialRectangle;connectable=0;fillColor=none;top=0;left=0;bottom=0;right=0;align=left;spacingLeft=6;overflow=hidden;" parent="xQEpdQuimWYe1z7LgiUK-176" vertex="1">
                    <mxGeometry x="170" width="80" height="32" as="geometry">
                        <mxRectangle width="80" height="32" as="alternateBounds"/>
                    </mxGeometry>
                </mxCell>
                <mxCell id="xQEpdQuimWYe1z7LgiUK-180" style="shape=tableRow;horizontal=0;startSize=0;swimlaneHead=0;swimlaneBody=0;fillColor=none;collapsible=0;dropTarget=0;points=[[0,0.5],[1,0.5]];portConstraint=eastwest;top=0;left=0;right=0;bottom=0;" parent="xQEpdQuimWYe1z7LgiUK-167" vertex="1">
                    <mxGeometry y="90" width="250" height="30" as="geometry"/>
                </mxCell>
                <mxCell id="xQEpdQuimWYe1z7LgiUK-181" value="" style="shape=partialRectangle;connectable=0;fillColor=none;top=0;left=0;bottom=0;right=0;editable=1;overflow=hidden;fontStyle=1" parent="xQEpdQuimWYe1z7LgiUK-180" vertex="1">
                    <mxGeometry width="50" height="30" as="geometry">
                        <mxRectangle width="50" height="30" as="alternateBounds"/>
                    </mxGeometry>
                </mxCell>
                <mxCell id="xQEpdQuimWYe1z7LgiUK-182" value="created_at" style="shape=partialRectangle;connectable=0;fillColor=none;top=0;left=0;bottom=0;right=0;align=left;spacingLeft=6;overflow=hidden;" parent="xQEpdQuimWYe1z7LgiUK-180" vertex="1">
                    <mxGeometry x="50" width="120" height="30" as="geometry">
                        <mxRectangle width="120" height="30" as="alternateBounds"/>
                    </mxGeometry>
                </mxCell>
                <mxCell id="xQEpdQuimWYe1z7LgiUK-183" value="TIMESTAMP" style="shape=partialRectangle;connectable=0;fillColor=none;top=0;left=0;bottom=0;right=0;align=left;spacingLeft=6;overflow=hidden;" parent="xQEpdQuimWYe1z7LgiUK-180" vertex="1">
                    <mxGeometry x="170" width="80" height="30" as="geometry">
                        <mxRectangle width="80" height="30" as="alternateBounds"/>
                    </mxGeometry>
                </mxCell>
                <mxCell id="xQEpdQuimWYe1z7LgiUK-184" value="" style="edgeStyle=elbowEdgeStyle;fontSize=12;html=1;endArrow=ERzeroToMany;startArrow=ERmandOne;rounded=1;startSize=15;endSize=15;strokeWidth=1;strokeColor=default;flowAnimation=0;noJump=0;deletable=1;cloneable=1;movable=1;metaEdit=0;snapToPoint=0;exitX=0.5;exitY=0;exitDx=0;exitDy=0;endFill=0;" parent="1" source="xQEpdQuimWYe1z7LgiUK-89" target="xQEpdQuimWYe1z7LgiUK-167" edge="1">
                    <mxGeometry width="100" height="100" relative="1" as="geometry">
                        <mxPoint x="580" y="120" as="sourcePoint"/>
                        <mxPoint x="1260" y="430" as="targetPoint"/>
                        <Array as="points">
                            <mxPoint x="680" y="130"/>
                            <mxPoint x="1060" y="300"/>
                        </Array>
                    </mxGeometry>
                </mxCell>
                <mxCell id="xQEpdQuimWYe1z7LgiUK-186" value="" style="edgeStyle=elbowEdgeStyle;fontSize=12;html=1;endArrow=ERzeroToMany;startArrow=ERmandOne;rounded=1;startSize=15;endSize=15;strokeColor=default;strokeWidth=1;entryX=0;entryY=0.5;entryDx=0;entryDy=0;startFill=0;endFill=0;" parent="1" target="xQEpdQuimWYe1z7LgiUK-176" edge="1">
                    <mxGeometry width="100" height="100" relative="1" as="geometry">
                        <mxPoint x="720" y="520" as="sourcePoint"/>
                        <mxPoint x="920" y="620" as="targetPoint"/>
                    </mxGeometry>
                </mxCell>
                <mxCell id="E6eJDUrzSVMhKCiF-ykW-1" value="video" style="shape=table;startSize=30;container=1;collapsible=1;childLayout=tableLayout;fixedRows=1;rowLines=0;fontStyle=1;align=center;resizeLast=1;fillColor=#eeeeee;strokeColor=#36393d;rounded=1;" parent="1" vertex="1">
                    <mxGeometry x="460" y="680" width="250" height="148" as="geometry">
                        <mxRectangle x="280" y="300" width="70" height="30" as="alternateBounds"/>
                    </mxGeometry>
                </mxCell>
                <mxCell id="E6eJDUrzSVMhKCiF-ykW-2" value="" style="shape=tableRow;horizontal=0;startSize=0;swimlaneHead=0;swimlaneBody=0;fillColor=none;collapsible=0;dropTarget=0;points=[[0,0.5],[1,0.5]];portConstraint=eastwest;top=0;left=0;right=0;bottom=1;" parent="E6eJDUrzSVMhKCiF-ykW-1" vertex="1">
                    <mxGeometry y="30" width="250" height="28" as="geometry"/>
                </mxCell>
                <mxCell id="E6eJDUrzSVMhKCiF-ykW-3" value="PK" style="shape=partialRectangle;connectable=0;fillColor=none;top=0;left=0;bottom=0;right=0;fontStyle=1;overflow=hidden;" parent="E6eJDUrzSVMhKCiF-ykW-2" vertex="1">
                    <mxGeometry width="50" height="28" as="geometry">
                        <mxRectangle width="50" height="28" as="alternateBounds"/>
                    </mxGeometry>
                </mxCell>
                <mxCell id="E6eJDUrzSVMhKCiF-ykW-4" value="id" style="shape=partialRectangle;connectable=0;fillColor=none;top=0;left=0;bottom=0;right=0;align=left;spacingLeft=6;fontStyle=0;overflow=hidden;" parent="E6eJDUrzSVMhKCiF-ykW-2" vertex="1">
                    <mxGeometry x="50" width="120" height="28" as="geometry">
                        <mxRectangle width="120" height="28" as="alternateBounds"/>
                    </mxGeometry>
                </mxCell>
                <mxCell id="E6eJDUrzSVMhKCiF-ykW-5" value="BIGSERIAL" style="shape=partialRectangle;connectable=0;fillColor=none;top=0;left=0;bottom=0;right=0;align=left;spacingLeft=6;fontStyle=0;overflow=hidden;" parent="E6eJDUrzSVMhKCiF-ykW-2" vertex="1">
                    <mxGeometry x="170" width="80" height="28" as="geometry">
                        <mxRectangle width="80" height="28" as="alternateBounds"/>
                    </mxGeometry>
                </mxCell>
                <mxCell id="E6eJDUrzSVMhKCiF-ykW-6" value="" style="shape=tableRow;horizontal=0;startSize=0;swimlaneHead=0;swimlaneBody=0;fillColor=none;collapsible=0;dropTarget=0;points=[[0,0.5],[1,0.5]];portConstraint=eastwest;top=0;left=0;right=0;bottom=0;" parent="E6eJDUrzSVMhKCiF-ykW-1" vertex="1">
                    <mxGeometry y="58" width="250" height="28" as="geometry"/>
                </mxCell>
                <mxCell id="E6eJDUrzSVMhKCiF-ykW-7" value="FK" style="shape=partialRectangle;connectable=0;fillColor=none;top=0;left=0;bottom=0;right=0;editable=1;overflow=hidden;fontStyle=1" parent="E6eJDUrzSVMhKCiF-ykW-6" vertex="1">
                    <mxGeometry width="50" height="28" as="geometry">
                        <mxRectangle width="50" height="28" as="alternateBounds"/>
                    </mxGeometry>
                </mxCell>
                <mxCell id="E6eJDUrzSVMhKCiF-ykW-8" value="youtube_channel_id" style="shape=partialRectangle;connectable=0;fillColor=none;top=0;left=0;bottom=0;right=0;align=left;spacingLeft=6;overflow=hidden;" parent="E6eJDUrzSVMhKCiF-ykW-6" vertex="1">
                    <mxGeometry x="50" width="120" height="28" as="geometry">
                        <mxRectangle width="120" height="28" as="alternateBounds"/>
                    </mxGeometry>
                </mxCell>
                <mxCell id="E6eJDUrzSVMhKCiF-ykW-9" value="BIGSERIAL" style="shape=partialRectangle;connectable=0;fillColor=none;top=0;left=0;bottom=0;right=0;align=left;spacingLeft=6;overflow=hidden;" parent="E6eJDUrzSVMhKCiF-ykW-6" vertex="1">
                    <mxGeometry x="170" width="80" height="28" as="geometry">
                        <mxRectangle width="80" height="28" as="alternateBounds"/>
                    </mxGeometry>
                </mxCell>
                <mxCell id="E6eJDUrzSVMhKCiF-ykW-10" value="" style="shape=tableRow;horizontal=0;startSize=0;swimlaneHead=0;swimlaneBody=0;fillColor=none;collapsible=0;dropTarget=0;points=[[0,0.5],[1,0.5]];portConstraint=eastwest;top=0;left=0;right=0;bottom=0;" parent="E6eJDUrzSVMhKCiF-ykW-1" vertex="1">
                    <mxGeometry y="86" width="250" height="32" as="geometry"/>
                </mxCell>
                <mxCell id="E6eJDUrzSVMhKCiF-ykW-11" value="UN1" style="shape=partialRectangle;connectable=0;fillColor=none;top=0;left=0;bottom=0;right=0;editable=1;overflow=hidden;fontStyle=1" parent="E6eJDUrzSVMhKCiF-ykW-10" vertex="1">
                    <mxGeometry width="50" height="32" as="geometry">
                        <mxRectangle width="50" height="32" as="alternateBounds"/>
                    </mxGeometry>
                </mxCell>
                <mxCell id="E6eJDUrzSVMhKCiF-ykW-12" value="video_name" style="shape=partialRectangle;connectable=0;fillColor=none;top=0;left=0;bottom=0;right=0;align=left;spacingLeft=6;overflow=hidden;" parent="E6eJDUrzSVMhKCiF-ykW-10" vertex="1">
                    <mxGeometry x="50" width="120" height="32" as="geometry">
                        <mxRectangle width="120" height="32" as="alternateBounds"/>
                    </mxGeometry>
                </mxCell>
                <mxCell id="E6eJDUrzSVMhKCiF-ykW-13" value="TEXT" style="shape=partialRectangle;connectable=0;fillColor=none;top=0;left=0;bottom=0;right=0;align=left;spacingLeft=6;overflow=hidden;" parent="E6eJDUrzSVMhKCiF-ykW-10" vertex="1">
                    <mxGeometry x="170" width="80" height="32" as="geometry">
                        <mxRectangle width="80" height="32" as="alternateBounds"/>
                    </mxGeometry>
                </mxCell>
                <mxCell id="E6eJDUrzSVMhKCiF-ykW-14" style="shape=tableRow;horizontal=0;startSize=0;swimlaneHead=0;swimlaneBody=0;fillColor=none;collapsible=0;dropTarget=0;points=[[0,0.5],[1,0.5]];portConstraint=eastwest;top=0;left=0;right=0;bottom=0;" parent="E6eJDUrzSVMhKCiF-ykW-1" vertex="1">
                    <mxGeometry y="118" width="250" height="30" as="geometry"/>
                </mxCell>
                <mxCell id="E6eJDUrzSVMhKCiF-ykW-15" value="" style="shape=partialRectangle;connectable=0;fillColor=none;top=0;left=0;bottom=0;right=0;editable=1;overflow=hidden;fontStyle=1" parent="E6eJDUrzSVMhKCiF-ykW-14" vertex="1">
                    <mxGeometry width="50" height="30" as="geometry">
                        <mxRectangle width="50" height="30" as="alternateBounds"/>
                    </mxGeometry>
                </mxCell>
                <mxCell id="E6eJDUrzSVMhKCiF-ykW-16" value="created_at" style="shape=partialRectangle;connectable=0;fillColor=none;top=0;left=0;bottom=0;right=0;align=left;spacingLeft=6;overflow=hidden;" parent="E6eJDUrzSVMhKCiF-ykW-14" vertex="1">
                    <mxGeometry x="50" width="120" height="30" as="geometry">
                        <mxRectangle width="120" height="30" as="alternateBounds"/>
                    </mxGeometry>
                </mxCell>
                <mxCell id="E6eJDUrzSVMhKCiF-ykW-17" value="TIMESTAMP" style="shape=partialRectangle;connectable=0;fillColor=none;top=0;left=0;bottom=0;right=0;align=left;spacingLeft=6;overflow=hidden;" parent="E6eJDUrzSVMhKCiF-ykW-14" vertex="1">
                    <mxGeometry x="170" width="80" height="30" as="geometry">
                        <mxRectangle width="80" height="30" as="alternateBounds"/>
                    </mxGeometry>
                </mxCell>
                <mxCell id="E6eJDUrzSVMhKCiF-ykW-19" value="video_view" style="shape=table;startSize=30;container=1;collapsible=1;childLayout=tableLayout;fixedRows=1;rowLines=0;fontStyle=1;align=center;resizeLast=1;fillColor=#eeeeee;strokeColor=#36393D;rounded=1;" parent="1" vertex="1">
                    <mxGeometry x="40" y="590" width="250" height="148" as="geometry">
                        <mxRectangle x="280" y="300" width="70" height="30" as="alternateBounds"/>
                    </mxGeometry>
                </mxCell>
                <mxCell id="E6eJDUrzSVMhKCiF-ykW-117" style="shape=tableRow;horizontal=0;startSize=0;swimlaneHead=0;swimlaneBody=0;fillColor=none;collapsible=0;dropTarget=0;points=[[0,0.5],[1,0.5]];portConstraint=eastwest;top=0;left=0;right=0;bottom=1;strokeColor=#000000;shadow=0;strokeWidth=1;perimeterSpacing=1;separatorColor=#000000;" parent="E6eJDUrzSVMhKCiF-ykW-19" vertex="1">
                    <mxGeometry y="30" width="250" height="28" as="geometry"/>
                </mxCell>
                <mxCell id="E6eJDUrzSVMhKCiF-ykW-118" value="PK" style="shape=partialRectangle;connectable=0;fillColor=none;top=0;left=0;bottom=0;right=0;editable=1;overflow=hidden;fontStyle=1" parent="E6eJDUrzSVMhKCiF-ykW-117" vertex="1">
                    <mxGeometry width="50" height="28" as="geometry">
                        <mxRectangle width="50" height="28" as="alternateBounds"/>
                    </mxGeometry>
                </mxCell>
                <mxCell id="E6eJDUrzSVMhKCiF-ykW-119" value="id" style="shape=partialRectangle;connectable=0;fillColor=none;top=0;left=0;bottom=0;right=0;align=left;spacingLeft=6;overflow=hidden;strokeColor=#000000;" parent="E6eJDUrzSVMhKCiF-ykW-117" vertex="1">
                    <mxGeometry x="50" width="120" height="28" as="geometry">
                        <mxRectangle width="120" height="28" as="alternateBounds"/>
                    </mxGeometry>
                </mxCell>
                <mxCell id="E6eJDUrzSVMhKCiF-ykW-120" value="BIGINT" style="shape=partialRectangle;connectable=0;fillColor=none;top=0;left=0;bottom=0;right=0;align=left;spacingLeft=6;overflow=hidden;" parent="E6eJDUrzSVMhKCiF-ykW-117" vertex="1">
                    <mxGeometry x="170" width="80" height="28" as="geometry">
                        <mxRectangle width="80" height="28" as="alternateBounds"/>
                    </mxGeometry>
                </mxCell>
                <mxCell id="E6eJDUrzSVMhKCiF-ykW-20" value="" style="shape=tableRow;horizontal=0;startSize=0;swimlaneHead=0;swimlaneBody=0;fillColor=none;collapsible=0;dropTarget=0;points=[[0,0.5],[1,0.5]];portConstraint=eastwest;top=0;left=0;right=0;bottom=0;" parent="E6eJDUrzSVMhKCiF-ykW-19" vertex="1">
                    <mxGeometry y="58" width="250" height="28" as="geometry"/>
                </mxCell>
                <mxCell id="E6eJDUrzSVMhKCiF-ykW-21" value="FK" style="shape=partialRectangle;connectable=0;fillColor=none;top=0;left=0;bottom=0;right=0;editable=1;overflow=hidden;fontStyle=1" parent="E6eJDUrzSVMhKCiF-ykW-20" vertex="1">
                    <mxGeometry width="50" height="28" as="geometry">
                        <mxRectangle width="50" height="28" as="alternateBounds"/>
                    </mxGeometry>
                </mxCell>
                <mxCell id="E6eJDUrzSVMhKCiF-ykW-22" value="youtube_account_id" style="shape=partialRectangle;connectable=0;fillColor=none;top=0;left=0;bottom=0;right=0;align=left;spacingLeft=6;overflow=hidden;" parent="E6eJDUrzSVMhKCiF-ykW-20" vertex="1">
                    <mxGeometry x="50" width="120" height="28" as="geometry">
                        <mxRectangle width="120" height="28" as="alternateBounds"/>
                    </mxGeometry>
                </mxCell>
                <mxCell id="E6eJDUrzSVMhKCiF-ykW-23" value="BIGINT" style="shape=partialRectangle;connectable=0;fillColor=none;top=0;left=0;bottom=0;right=0;align=left;spacingLeft=6;overflow=hidden;" parent="E6eJDUrzSVMhKCiF-ykW-20" vertex="1">
                    <mxGeometry x="170" width="80" height="28" as="geometry">
                        <mxRectangle width="80" height="28" as="alternateBounds"/>
                    </mxGeometry>
                </mxCell>
                <mxCell id="E6eJDUrzSVMhKCiF-ykW-24" value="" style="shape=tableRow;horizontal=0;startSize=0;swimlaneHead=0;swimlaneBody=0;fillColor=none;collapsible=0;dropTarget=0;points=[[0,0.5],[1,0.5]];portConstraint=eastwest;top=0;left=0;right=0;bottom=0;" parent="E6eJDUrzSVMhKCiF-ykW-19" vertex="1">
                    <mxGeometry y="86" width="250" height="32" as="geometry"/>
                </mxCell>
                <mxCell id="E6eJDUrzSVMhKCiF-ykW-25" value="FK" style="shape=partialRectangle;connectable=0;fillColor=none;top=0;left=0;bottom=0;right=0;editable=1;overflow=hidden;fontStyle=1" parent="E6eJDUrzSVMhKCiF-ykW-24" vertex="1">
                    <mxGeometry width="50" height="32" as="geometry">
                        <mxRectangle width="50" height="32" as="alternateBounds"/>
                    </mxGeometry>
                </mxCell>
                <mxCell id="E6eJDUrzSVMhKCiF-ykW-26" value="video_id" style="shape=partialRectangle;connectable=0;fillColor=none;top=0;left=0;bottom=0;right=0;align=left;spacingLeft=6;overflow=hidden;" parent="E6eJDUrzSVMhKCiF-ykW-24" vertex="1">
                    <mxGeometry x="50" width="120" height="32" as="geometry">
                        <mxRectangle width="120" height="32" as="alternateBounds"/>
                    </mxGeometry>
                </mxCell>
                <mxCell id="E6eJDUrzSVMhKCiF-ykW-27" value="BIGINT" style="shape=partialRectangle;connectable=0;fillColor=none;top=0;left=0;bottom=0;right=0;align=left;spacingLeft=6;overflow=hidden;" parent="E6eJDUrzSVMhKCiF-ykW-24" vertex="1">
                    <mxGeometry x="170" width="80" height="32" as="geometry">
                        <mxRectangle width="80" height="32" as="alternateBounds"/>
                    </mxGeometry>
                </mxCell>
                <mxCell id="E6eJDUrzSVMhKCiF-ykW-28" style="shape=tableRow;horizontal=0;startSize=0;swimlaneHead=0;swimlaneBody=0;fillColor=none;collapsible=0;dropTarget=0;points=[[0,0.5],[1,0.5]];portConstraint=eastwest;top=0;left=0;right=0;bottom=0;" parent="E6eJDUrzSVMhKCiF-ykW-19" vertex="1">
                    <mxGeometry y="118" width="250" height="30" as="geometry"/>
                </mxCell>
                <mxCell id="E6eJDUrzSVMhKCiF-ykW-29" value="" style="shape=partialRectangle;connectable=0;fillColor=none;top=0;left=0;bottom=0;right=0;editable=1;overflow=hidden;fontStyle=1" parent="E6eJDUrzSVMhKCiF-ykW-28" vertex="1">
                    <mxGeometry width="50" height="30" as="geometry">
                        <mxRectangle width="50" height="30" as="alternateBounds"/>
                    </mxGeometry>
                </mxCell>
                <mxCell id="E6eJDUrzSVMhKCiF-ykW-30" value="created_at" style="shape=partialRectangle;connectable=0;fillColor=none;top=0;left=0;bottom=0;right=0;align=left;spacingLeft=6;overflow=hidden;" parent="E6eJDUrzSVMhKCiF-ykW-28" vertex="1">
                    <mxGeometry x="50" width="120" height="30" as="geometry">
                        <mxRectangle width="120" height="30" as="alternateBounds"/>
                    </mxGeometry>
                </mxCell>
                <mxCell id="E6eJDUrzSVMhKCiF-ykW-31" value="TIMESTAMP" style="shape=partialRectangle;connectable=0;fillColor=none;top=0;left=0;bottom=0;right=0;align=left;spacingLeft=6;overflow=hidden;" parent="E6eJDUrzSVMhKCiF-ykW-28" vertex="1">
                    <mxGeometry x="170" width="80" height="30" as="geometry">
                        <mxRectangle width="80" height="30" as="alternateBounds"/>
                    </mxGeometry>
                </mxCell>
                <mxCell id="E6eJDUrzSVMhKCiF-ykW-41" value="" style="edgeStyle=orthogonalEdgeStyle;fontSize=12;html=1;endArrow=ERmandOne;rounded=1;startSize=15;endSize=15;strokeColor=default;strokeWidth=1;elbow=vertical;exitX=0.437;exitY=-0.023;exitDx=0;exitDy=0;exitPerimeter=0;entryX=0.397;entryY=0.997;entryDx=0;entryDy=0;entryPerimeter=0;startArrow=ERzeroToMany;startFill=0;" parent="1" source="E6eJDUrzSVMhKCiF-ykW-1" target="xQEpdQuimWYe1z7LgiUK-129" edge="1">
                    <mxGeometry width="100" height="100" relative="1" as="geometry">
                        <mxPoint x="470" y="650" as="sourcePoint"/>
                        <mxPoint x="570" y="550" as="targetPoint"/>
                    </mxGeometry>
                </mxCell>
                <mxCell id="E6eJDUrzSVMhKCiF-ykW-42" value="" style="edgeStyle=orthogonalEdgeStyle;fontSize=12;html=1;endArrow=ERzeroToOne;startArrow=ERzeroToMany;strokeWidth=1;rounded=1;endSize=15;startSize=15;exitX=0.5;exitY=0;exitDx=0;exitDy=0;startFill=0;entryX=0;entryY=0.5;entryDx=0;entryDy=0;" parent="1" source="E6eJDUrzSVMhKCiF-ykW-19" target="xQEpdQuimWYe1z7LgiUK-110" edge="1">
                    <mxGeometry width="100" height="100" relative="1" as="geometry">
                        <mxPoint x="140" y="560" as="sourcePoint"/>
                        <mxPoint x="410" y="260" as="targetPoint"/>
                        <Array as="points">
                            <mxPoint x="165" y="520"/>
                            <mxPoint x="320" y="520"/>
                            <mxPoint x="320" y="260"/>
                        </Array>
                    </mxGeometry>
                </mxCell>
                <mxCell id="E6eJDUrzSVMhKCiF-ykW-44" value="" style="edgeStyle=orthogonalEdgeStyle;fontSize=12;html=1;endArrow=ERmandOne;endFill=0;rounded=1;startSize=15;endSize=15;strokeColor=default;strokeWidth=1;elbow=vertical;entryX=0;entryY=0.5;entryDx=0;entryDy=0;exitX=1;exitY=0.5;exitDx=0;exitDy=0;startArrow=ERzeroToMany;startFill=0;" parent="1" source="E6eJDUrzSVMhKCiF-ykW-24" target="E6eJDUrzSVMhKCiF-ykW-2" edge="1">
                    <mxGeometry width="100" height="100" relative="1" as="geometry">
                        <mxPoint x="280" y="850" as="sourcePoint"/>
                        <mxPoint x="380" y="750" as="targetPoint"/>
                    </mxGeometry>
                </mxCell>
                <mxCell id="E6eJDUrzSVMhKCiF-ykW-45" value="video_comment" style="shape=table;startSize=30;container=1;collapsible=1;childLayout=tableLayout;fixedRows=1;rowLines=0;fontStyle=1;align=center;resizeLast=1;fillColor=#eeeeee;strokeColor=#36393D;rounded=1;" parent="1" vertex="1">
                    <mxGeometry x="950" y="760" width="250" height="178" as="geometry">
                        <mxRectangle x="280" y="300" width="70" height="30" as="alternateBounds"/>
                    </mxGeometry>
                </mxCell>
                <mxCell id="E6eJDUrzSVMhKCiF-ykW-100" style="shape=tableRow;horizontal=0;startSize=0;swimlaneHead=0;swimlaneBody=0;fillColor=none;collapsible=0;dropTarget=0;points=[[0,0.5],[1,0.5]];portConstraint=eastwest;top=0;left=0;right=0;bottom=1;" parent="E6eJDUrzSVMhKCiF-ykW-45" vertex="1">
                    <mxGeometry y="30" width="250" height="28" as="geometry"/>
                </mxCell>
                <mxCell id="E6eJDUrzSVMhKCiF-ykW-101" value="PK" style="shape=partialRectangle;connectable=0;fillColor=none;top=0;left=0;bottom=0;right=0;editable=1;overflow=hidden;fontStyle=1" parent="E6eJDUrzSVMhKCiF-ykW-100" vertex="1">
                    <mxGeometry width="50" height="28" as="geometry">
                        <mxRectangle width="50" height="28" as="alternateBounds"/>
                    </mxGeometry>
                </mxCell>
                <mxCell id="E6eJDUrzSVMhKCiF-ykW-102" value="id" style="shape=partialRectangle;connectable=0;fillColor=none;top=0;left=0;bottom=0;right=0;align=left;spacingLeft=6;overflow=hidden;" parent="E6eJDUrzSVMhKCiF-ykW-100" vertex="1">
                    <mxGeometry x="50" width="120" height="28" as="geometry">
                        <mxRectangle width="120" height="28" as="alternateBounds"/>
                    </mxGeometry>
                </mxCell>
                <mxCell id="E6eJDUrzSVMhKCiF-ykW-103" value="BIGINT" style="shape=partialRectangle;connectable=0;fillColor=none;top=0;left=0;bottom=0;right=0;align=left;spacingLeft=6;overflow=hidden;" parent="E6eJDUrzSVMhKCiF-ykW-100" vertex="1">
                    <mxGeometry x="170" width="80" height="28" as="geometry">
                        <mxRectangle width="80" height="28" as="alternateBounds"/>
                    </mxGeometry>
                </mxCell>
                <mxCell id="E6eJDUrzSVMhKCiF-ykW-46" value="" style="shape=tableRow;horizontal=0;startSize=0;swimlaneHead=0;swimlaneBody=0;fillColor=none;collapsible=0;dropTarget=0;points=[[0,0.5],[1,0.5]];portConstraint=eastwest;top=0;left=0;right=0;bottom=0;" parent="E6eJDUrzSVMhKCiF-ykW-45" vertex="1">
                    <mxGeometry y="58" width="250" height="28" as="geometry"/>
                </mxCell>
                <mxCell id="E6eJDUrzSVMhKCiF-ykW-47" value="FK" style="shape=partialRectangle;connectable=0;fillColor=none;top=0;left=0;bottom=0;right=0;editable=1;overflow=hidden;fontStyle=1" parent="E6eJDUrzSVMhKCiF-ykW-46" vertex="1">
                    <mxGeometry width="50" height="28" as="geometry">
                        <mxRectangle width="50" height="28" as="alternateBounds"/>
                    </mxGeometry>
                </mxCell>
                <mxCell id="E6eJDUrzSVMhKCiF-ykW-48" value="youtube_account_id" style="shape=partialRectangle;connectable=0;fillColor=none;top=0;left=0;bottom=0;right=0;align=left;spacingLeft=6;overflow=hidden;" parent="E6eJDUrzSVMhKCiF-ykW-46" vertex="1">
                    <mxGeometry x="50" width="120" height="28" as="geometry">
                        <mxRectangle width="120" height="28" as="alternateBounds"/>
                    </mxGeometry>
                </mxCell>
                <mxCell id="E6eJDUrzSVMhKCiF-ykW-49" value="BIGINT" style="shape=partialRectangle;connectable=0;fillColor=none;top=0;left=0;bottom=0;right=0;align=left;spacingLeft=6;overflow=hidden;" parent="E6eJDUrzSVMhKCiF-ykW-46" vertex="1">
                    <mxGeometry x="170" width="80" height="28" as="geometry">
                        <mxRectangle width="80" height="28" as="alternateBounds"/>
                    </mxGeometry>
                </mxCell>
                <mxCell id="E6eJDUrzSVMhKCiF-ykW-50" value="" style="shape=tableRow;horizontal=0;startSize=0;swimlaneHead=0;swimlaneBody=0;fillColor=none;collapsible=0;dropTarget=0;points=[[0,0.5],[1,0.5]];portConstraint=eastwest;top=0;left=0;right=0;bottom=0;" parent="E6eJDUrzSVMhKCiF-ykW-45" vertex="1">
                    <mxGeometry y="86" width="250" height="32" as="geometry"/>
                </mxCell>
                <mxCell id="E6eJDUrzSVMhKCiF-ykW-51" value="FK" style="shape=partialRectangle;connectable=0;fillColor=none;top=0;left=0;bottom=0;right=0;editable=1;overflow=hidden;fontStyle=1" parent="E6eJDUrzSVMhKCiF-ykW-50" vertex="1">
                    <mxGeometry width="50" height="32" as="geometry">
                        <mxRectangle width="50" height="32" as="alternateBounds"/>
                    </mxGeometry>
                </mxCell>
                <mxCell id="E6eJDUrzSVMhKCiF-ykW-52" value="video_id" style="shape=partialRectangle;connectable=0;fillColor=none;top=0;left=0;bottom=0;right=0;align=left;spacingLeft=6;overflow=hidden;" parent="E6eJDUrzSVMhKCiF-ykW-50" vertex="1">
                    <mxGeometry x="50" width="120" height="32" as="geometry">
                        <mxRectangle width="120" height="32" as="alternateBounds"/>
                    </mxGeometry>
                </mxCell>
                <mxCell id="E6eJDUrzSVMhKCiF-ykW-53" value="BIGINT" style="shape=partialRectangle;connectable=0;fillColor=none;top=0;left=0;bottom=0;right=0;align=left;spacingLeft=6;overflow=hidden;" parent="E6eJDUrzSVMhKCiF-ykW-50" vertex="1">
                    <mxGeometry x="170" width="80" height="32" as="geometry">
                        <mxRectangle width="80" height="32" as="alternateBounds"/>
                    </mxGeometry>
                </mxCell>
                <mxCell id="E6eJDUrzSVMhKCiF-ykW-62" style="shape=tableRow;horizontal=0;startSize=0;swimlaneHead=0;swimlaneBody=0;fillColor=none;collapsible=0;dropTarget=0;points=[[0,0.5],[1,0.5]];portConstraint=eastwest;top=0;left=0;right=0;bottom=0;" parent="E6eJDUrzSVMhKCiF-ykW-45" vertex="1">
                    <mxGeometry y="118" width="250" height="30" as="geometry"/>
                </mxCell>
                <mxCell id="E6eJDUrzSVMhKCiF-ykW-63" style="shape=partialRectangle;connectable=0;fillColor=none;top=0;left=0;bottom=0;right=0;editable=1;overflow=hidden;fontStyle=1" parent="E6eJDUrzSVMhKCiF-ykW-62" vertex="1">
                    <mxGeometry width="50" height="30" as="geometry">
                        <mxRectangle width="50" height="30" as="alternateBounds"/>
                    </mxGeometry>
                </mxCell>
                <mxCell id="E6eJDUrzSVMhKCiF-ykW-64" value="comment" style="shape=partialRectangle;connectable=0;fillColor=none;top=0;left=0;bottom=0;right=0;align=left;spacingLeft=6;overflow=hidden;" parent="E6eJDUrzSVMhKCiF-ykW-62" vertex="1">
                    <mxGeometry x="50" width="120" height="30" as="geometry">
                        <mxRectangle width="120" height="30" as="alternateBounds"/>
                    </mxGeometry>
                </mxCell>
                <mxCell id="E6eJDUrzSVMhKCiF-ykW-65" value="TEXT" style="shape=partialRectangle;connectable=0;fillColor=none;top=0;left=0;bottom=0;right=0;align=left;spacingLeft=6;overflow=hidden;" parent="E6eJDUrzSVMhKCiF-ykW-62" vertex="1">
                    <mxGeometry x="170" width="80" height="30" as="geometry">
                        <mxRectangle width="80" height="30" as="alternateBounds"/>
                    </mxGeometry>
                </mxCell>
                <mxCell id="E6eJDUrzSVMhKCiF-ykW-54" style="shape=tableRow;horizontal=0;startSize=0;swimlaneHead=0;swimlaneBody=0;fillColor=none;collapsible=0;dropTarget=0;points=[[0,0.5],[1,0.5]];portConstraint=eastwest;top=0;left=0;right=0;bottom=0;" parent="E6eJDUrzSVMhKCiF-ykW-45" vertex="1">
                    <mxGeometry y="148" width="250" height="30" as="geometry"/>
                </mxCell>
                <mxCell id="E6eJDUrzSVMhKCiF-ykW-55" value="" style="shape=partialRectangle;connectable=0;fillColor=none;top=0;left=0;bottom=0;right=0;editable=1;overflow=hidden;fontStyle=1" parent="E6eJDUrzSVMhKCiF-ykW-54" vertex="1">
                    <mxGeometry width="50" height="30" as="geometry">
                        <mxRectangle width="50" height="30" as="alternateBounds"/>
                    </mxGeometry>
                </mxCell>
                <mxCell id="E6eJDUrzSVMhKCiF-ykW-56" value="created_at" style="shape=partialRectangle;connectable=0;fillColor=none;top=0;left=0;bottom=0;right=0;align=left;spacingLeft=6;overflow=hidden;" parent="E6eJDUrzSVMhKCiF-ykW-54" vertex="1">
                    <mxGeometry x="50" width="120" height="30" as="geometry">
                        <mxRectangle width="120" height="30" as="alternateBounds"/>
                    </mxGeometry>
                </mxCell>
                <mxCell id="E6eJDUrzSVMhKCiF-ykW-57" value="TIMESTAMP" style="shape=partialRectangle;connectable=0;fillColor=none;top=0;left=0;bottom=0;right=0;align=left;spacingLeft=6;overflow=hidden;" parent="E6eJDUrzSVMhKCiF-ykW-54" vertex="1">
                    <mxGeometry x="170" width="80" height="30" as="geometry">
                        <mxRectangle width="80" height="30" as="alternateBounds"/>
                    </mxGeometry>
                </mxCell>
                <mxCell id="E6eJDUrzSVMhKCiF-ykW-58" value="" style="edgeStyle=orthogonalEdgeStyle;fontSize=12;html=1;endArrow=ERzeroToMany;startArrow=ERmandOne;rounded=1;startSize=15;endSize=15;strokeColor=default;strokeWidth=1;elbow=vertical;exitX=1;exitY=0.5;exitDx=0;exitDy=0;startFill=0;" parent="1" source="E6eJDUrzSVMhKCiF-ykW-2" target="E6eJDUrzSVMhKCiF-ykW-50" edge="1">
                    <mxGeometry width="100" height="100" relative="1" as="geometry">
                        <mxPoint x="770" y="900" as="sourcePoint"/>
                        <mxPoint x="870" y="800" as="targetPoint"/>
                    </mxGeometry>
                </mxCell>
                <mxCell id="E6eJDUrzSVMhKCiF-ykW-61" value="" style="edgeStyle=orthogonalEdgeStyle;fontSize=12;html=1;endArrow=ERzeroToMany;startArrow=ERmandOne;rounded=1;startSize=15;endSize=15;strokeWidth=1;strokeColor=default;flowAnimation=0;noJump=0;deletable=1;cloneable=1;movable=1;metaEdit=0;snapToPoint=0;exitX=1;exitY=0.25;exitDx=0;exitDy=0;entryX=1;entryY=0.5;entryDx=0;entryDy=0;endFill=0;" parent="1" source="xQEpdQuimWYe1z7LgiUK-89" target="E6eJDUrzSVMhKCiF-ykW-46" edge="1">
                    <mxGeometry width="100" height="100" relative="1" as="geometry">
                        <mxPoint x="610" y="150" as="sourcePoint"/>
                        <mxPoint x="1150" y="453" as="targetPoint"/>
                        <Array as="points">
                            <mxPoint x="1280" y="207"/>
                            <mxPoint x="1280" y="832"/>
                        </Array>
                    </mxGeometry>
                </mxCell>
                <mxCell id="E6eJDUrzSVMhKCiF-ykW-83" style="edgeStyle=orthogonalEdgeStyle;rounded=1;orthogonalLoop=1;jettySize=auto;html=1;startArrow=ERzeroToMany;startFill=0;endArrow=ERmandOne;endFill=0;startSize=15;endSize=15;strokeColor=default;strokeWidth=1;elbow=vertical;entryX=0.479;entryY=1.011;entryDx=0;entryDy=0;entryPerimeter=0;" parent="1" target="E6eJDUrzSVMhKCiF-ykW-14" edge="1">
                    <mxGeometry relative="1" as="geometry">
                        <mxPoint x="580" y="860" as="targetPoint"/>
                        <mxPoint x="581" y="1130" as="sourcePoint"/>
                        <Array as="points">
                            <mxPoint x="580" y="1130"/>
                            <mxPoint x="580" y="1090"/>
                            <mxPoint x="580" y="1090"/>
                        </Array>
                    </mxGeometry>
                </mxCell>
                <mxCell id="E6eJDUrzSVMhKCiF-ykW-66" value="video_like" style="shape=table;startSize=30;container=1;collapsible=1;childLayout=tableLayout;fixedRows=1;rowLines=0;fontStyle=1;align=center;resizeLast=1;fillColor=#eeeeee;strokeColor=#36393D;rounded=1;" parent="1" vertex="1">
                    <mxGeometry x="460" y="1130" width="250" height="120" as="geometry">
                        <mxRectangle x="280" y="300" width="70" height="30" as="alternateBounds"/>
                    </mxGeometry>
                </mxCell>
                <mxCell id="E6eJDUrzSVMhKCiF-ykW-67" value="" style="shape=tableRow;horizontal=0;startSize=0;swimlaneHead=0;swimlaneBody=0;fillColor=none;collapsible=0;dropTarget=0;points=[[0,0.5],[1,0.5]];portConstraint=eastwest;top=0;left=0;right=0;bottom=0;" parent="E6eJDUrzSVMhKCiF-ykW-66" vertex="1">
                    <mxGeometry y="30" width="250" height="28" as="geometry"/>
                </mxCell>
                <mxCell id="E6eJDUrzSVMhKCiF-ykW-68" value="PK,FK" style="shape=partialRectangle;connectable=0;fillColor=none;top=0;left=0;bottom=0;right=0;editable=1;overflow=hidden;fontStyle=1" parent="E6eJDUrzSVMhKCiF-ykW-67" vertex="1">
                    <mxGeometry width="50" height="28" as="geometry">
                        <mxRectangle width="50" height="28" as="alternateBounds"/>
                    </mxGeometry>
                </mxCell>
                <mxCell id="E6eJDUrzSVMhKCiF-ykW-69" value="youtube_account_id" style="shape=partialRectangle;connectable=0;fillColor=none;top=0;left=0;bottom=0;right=0;align=left;spacingLeft=6;overflow=hidden;" parent="E6eJDUrzSVMhKCiF-ykW-67" vertex="1">
                    <mxGeometry x="50" width="120" height="28" as="geometry">
                        <mxRectangle width="120" height="28" as="alternateBounds"/>
                    </mxGeometry>
                </mxCell>
                <mxCell id="E6eJDUrzSVMhKCiF-ykW-70" value="BIGINT" style="shape=partialRectangle;connectable=0;fillColor=none;top=0;left=0;bottom=0;right=0;align=left;spacingLeft=6;overflow=hidden;" parent="E6eJDUrzSVMhKCiF-ykW-67" vertex="1">
                    <mxGeometry x="170" width="80" height="28" as="geometry">
                        <mxRectangle width="80" height="28" as="alternateBounds"/>
                    </mxGeometry>
                </mxCell>
                <mxCell id="E6eJDUrzSVMhKCiF-ykW-71" value="" style="shape=tableRow;horizontal=0;startSize=0;swimlaneHead=0;swimlaneBody=0;fillColor=none;collapsible=0;dropTarget=0;points=[[0,0.5],[1,0.5]];portConstraint=eastwest;top=0;left=0;right=0;bottom=0;" parent="E6eJDUrzSVMhKCiF-ykW-66" vertex="1">
                    <mxGeometry y="58" width="250" height="32" as="geometry"/>
                </mxCell>
                <mxCell id="E6eJDUrzSVMhKCiF-ykW-72" value="PK,FK" style="shape=partialRectangle;connectable=0;fillColor=none;top=0;left=0;bottom=0;right=0;editable=1;overflow=hidden;fontStyle=1" parent="E6eJDUrzSVMhKCiF-ykW-71" vertex="1">
                    <mxGeometry width="50" height="32" as="geometry">
                        <mxRectangle width="50" height="32" as="alternateBounds"/>
                    </mxGeometry>
                </mxCell>
                <mxCell id="E6eJDUrzSVMhKCiF-ykW-73" value="video_id" style="shape=partialRectangle;connectable=0;fillColor=none;top=0;left=0;bottom=0;right=0;align=left;spacingLeft=6;overflow=hidden;" parent="E6eJDUrzSVMhKCiF-ykW-71" vertex="1">
                    <mxGeometry x="50" width="120" height="32" as="geometry">
                        <mxRectangle width="120" height="32" as="alternateBounds"/>
                    </mxGeometry>
                </mxCell>
                <mxCell id="E6eJDUrzSVMhKCiF-ykW-74" value="BIGINT" style="shape=partialRectangle;connectable=0;fillColor=none;top=0;left=0;bottom=0;right=0;align=left;spacingLeft=6;overflow=hidden;" parent="E6eJDUrzSVMhKCiF-ykW-71" vertex="1">
                    <mxGeometry x="170" width="80" height="32" as="geometry">
                        <mxRectangle width="80" height="32" as="alternateBounds"/>
                    </mxGeometry>
                </mxCell>
                <mxCell id="E6eJDUrzSVMhKCiF-ykW-79" style="shape=tableRow;horizontal=0;startSize=0;swimlaneHead=0;swimlaneBody=0;fillColor=none;collapsible=0;dropTarget=0;points=[[0,0.5],[1,0.5]];portConstraint=eastwest;top=0;left=0;right=0;bottom=0;" parent="E6eJDUrzSVMhKCiF-ykW-66" vertex="1">
                    <mxGeometry y="90" width="250" height="30" as="geometry"/>
                </mxCell>
                <mxCell id="E6eJDUrzSVMhKCiF-ykW-80" value="" style="shape=partialRectangle;connectable=0;fillColor=none;top=0;left=0;bottom=0;right=0;editable=1;overflow=hidden;fontStyle=1" parent="E6eJDUrzSVMhKCiF-ykW-79" vertex="1">
                    <mxGeometry width="50" height="30" as="geometry">
                        <mxRectangle width="50" height="30" as="alternateBounds"/>
                    </mxGeometry>
                </mxCell>
                <mxCell id="E6eJDUrzSVMhKCiF-ykW-81" value="created_at" style="shape=partialRectangle;connectable=0;fillColor=none;top=0;left=0;bottom=0;right=0;align=left;spacingLeft=6;overflow=hidden;" parent="E6eJDUrzSVMhKCiF-ykW-79" vertex="1">
                    <mxGeometry x="50" width="120" height="30" as="geometry">
                        <mxRectangle width="120" height="30" as="alternateBounds"/>
                    </mxGeometry>
                </mxCell>
                <mxCell id="E6eJDUrzSVMhKCiF-ykW-82" value="TIMESTAMP" style="shape=partialRectangle;connectable=0;fillColor=none;top=0;left=0;bottom=0;right=0;align=left;spacingLeft=6;overflow=hidden;" parent="E6eJDUrzSVMhKCiF-ykW-79" vertex="1">
                    <mxGeometry x="170" width="80" height="30" as="geometry">
                        <mxRectangle width="80" height="30" as="alternateBounds"/>
                    </mxGeometry>
                </mxCell>
                <mxCell id="E6eJDUrzSVMhKCiF-ykW-84" value="youtube_video_like" style="shape=table;startSize=30;container=1;collapsible=1;childLayout=tableLayout;fixedRows=1;rowLines=0;fontStyle=1;align=center;resizeLast=1;fillColor=#eeeeee;strokeColor=#36393D;rounded=1;" parent="1" vertex="1">
                    <mxGeometry x="930" y="1130" width="320" height="120" as="geometry">
                        <mxRectangle x="930" y="1130" width="70" height="30" as="alternateBounds"/>
                    </mxGeometry>
                </mxCell>
                <mxCell id="E6eJDUrzSVMhKCiF-ykW-85" value="" style="shape=tableRow;horizontal=0;startSize=0;swimlaneHead=0;swimlaneBody=0;fillColor=none;collapsible=0;dropTarget=0;points=[[0,0.5],[1,0.5]];portConstraint=eastwest;top=0;left=0;right=0;bottom=0;" parent="E6eJDUrzSVMhKCiF-ykW-84" vertex="1">
                    <mxGeometry y="30" width="320" height="28" as="geometry"/>
                </mxCell>
                <mxCell id="E6eJDUrzSVMhKCiF-ykW-86" value="PK,FK" style="shape=partialRectangle;connectable=0;fillColor=none;top=0;left=0;bottom=0;right=0;editable=1;overflow=hidden;fontStyle=1" parent="E6eJDUrzSVMhKCiF-ykW-85" vertex="1">
                    <mxGeometry width="50" height="28" as="geometry">
                        <mxRectangle width="50" height="28" as="alternateBounds"/>
                    </mxGeometry>
                </mxCell>
                <mxCell id="E6eJDUrzSVMhKCiF-ykW-87" value="youtube_account_id" style="shape=partialRectangle;connectable=0;fillColor=none;top=0;left=0;bottom=0;right=0;align=left;spacingLeft=6;overflow=hidden;" parent="E6eJDUrzSVMhKCiF-ykW-85" vertex="1">
                    <mxGeometry x="50" width="170" height="28" as="geometry">
                        <mxRectangle width="170" height="28" as="alternateBounds"/>
                    </mxGeometry>
                </mxCell>
                <mxCell id="E6eJDUrzSVMhKCiF-ykW-88" value="BIGINT" style="shape=partialRectangle;connectable=0;fillColor=none;top=0;left=0;bottom=0;right=0;align=left;spacingLeft=6;overflow=hidden;" parent="E6eJDUrzSVMhKCiF-ykW-85" vertex="1">
                    <mxGeometry x="220" width="100" height="28" as="geometry">
                        <mxRectangle width="100" height="28" as="alternateBounds"/>
                    </mxGeometry>
                </mxCell>
                <mxCell id="E6eJDUrzSVMhKCiF-ykW-89" value="" style="shape=tableRow;horizontal=0;startSize=0;swimlaneHead=0;swimlaneBody=0;fillColor=none;collapsible=0;dropTarget=0;points=[[0,0.5],[1,0.5]];portConstraint=eastwest;top=0;left=0;right=0;bottom=0;" parent="E6eJDUrzSVMhKCiF-ykW-84" vertex="1">
                    <mxGeometry y="58" width="320" height="32" as="geometry"/>
                </mxCell>
                <mxCell id="E6eJDUrzSVMhKCiF-ykW-90" value="PK,FK" style="shape=partialRectangle;connectable=0;fillColor=none;top=0;left=0;bottom=0;right=0;editable=1;overflow=hidden;fontStyle=1" parent="E6eJDUrzSVMhKCiF-ykW-89" vertex="1">
                    <mxGeometry width="50" height="32" as="geometry">
                        <mxRectangle width="50" height="32" as="alternateBounds"/>
                    </mxGeometry>
                </mxCell>
                <mxCell id="E6eJDUrzSVMhKCiF-ykW-91" value="video_comment_id" style="shape=partialRectangle;connectable=0;fillColor=none;top=0;left=0;bottom=0;right=0;align=left;spacingLeft=6;overflow=hidden;" parent="E6eJDUrzSVMhKCiF-ykW-89" vertex="1">
                    <mxGeometry x="50" width="170" height="32" as="geometry">
                        <mxRectangle width="170" height="32" as="alternateBounds"/>
                    </mxGeometry>
                </mxCell>
                <mxCell id="E6eJDUrzSVMhKCiF-ykW-92" value="BIGINT" style="shape=partialRectangle;connectable=0;fillColor=none;top=0;left=0;bottom=0;right=0;align=left;spacingLeft=6;overflow=hidden;" parent="E6eJDUrzSVMhKCiF-ykW-89" vertex="1">
                    <mxGeometry x="220" width="100" height="32" as="geometry">
                        <mxRectangle width="100" height="32" as="alternateBounds"/>
                    </mxGeometry>
                </mxCell>
                <mxCell id="E6eJDUrzSVMhKCiF-ykW-93" style="shape=tableRow;horizontal=0;startSize=0;swimlaneHead=0;swimlaneBody=0;fillColor=none;collapsible=0;dropTarget=0;points=[[0,0.5],[1,0.5]];portConstraint=eastwest;top=0;left=0;right=0;bottom=0;" parent="E6eJDUrzSVMhKCiF-ykW-84" vertex="1">
                    <mxGeometry y="90" width="320" height="30" as="geometry"/>
                </mxCell>
                <mxCell id="E6eJDUrzSVMhKCiF-ykW-94" value="" style="shape=partialRectangle;connectable=0;fillColor=none;top=0;left=0;bottom=0;right=0;editable=1;overflow=hidden;fontStyle=1" parent="E6eJDUrzSVMhKCiF-ykW-93" vertex="1">
                    <mxGeometry width="50" height="30" as="geometry">
                        <mxRectangle width="50" height="30" as="alternateBounds"/>
                    </mxGeometry>
                </mxCell>
                <mxCell id="E6eJDUrzSVMhKCiF-ykW-95" value="created_at" style="shape=partialRectangle;connectable=0;fillColor=none;top=0;left=0;bottom=0;right=0;align=left;spacingLeft=6;overflow=hidden;" parent="E6eJDUrzSVMhKCiF-ykW-93" vertex="1">
                    <mxGeometry x="50" width="170" height="30" as="geometry">
                        <mxRectangle width="170" height="30" as="alternateBounds"/>
                    </mxGeometry>
                </mxCell>
                <mxCell id="E6eJDUrzSVMhKCiF-ykW-96" value="TIMESTAMP" style="shape=partialRectangle;connectable=0;fillColor=none;top=0;left=0;bottom=0;right=0;align=left;spacingLeft=6;overflow=hidden;" parent="E6eJDUrzSVMhKCiF-ykW-93" vertex="1">
                    <mxGeometry x="220" width="100" height="30" as="geometry">
                        <mxRectangle width="100" height="30" as="alternateBounds"/>
                    </mxGeometry>
                </mxCell>
                <mxCell id="E6eJDUrzSVMhKCiF-ykW-98" value="" style="edgeStyle=orthogonalEdgeStyle;fontSize=12;html=1;endArrow=ERoneToMany;startArrow=ERmandOne;rounded=1;startSize=15;endSize=15;strokeWidth=1;strokeColor=default;flowAnimation=0;noJump=0;deletable=1;cloneable=1;movable=1;metaEdit=0;snapToPoint=0;entryX=1;entryY=0.5;entryDx=0;entryDy=0;" parent="1" source="xQEpdQuimWYe1z7LgiUK-110" target="E6eJDUrzSVMhKCiF-ykW-85" edge="1">
                    <mxGeometry width="100" height="100" relative="1" as="geometry">
                        <mxPoint x="650" y="216.99999999999977" as="sourcePoint"/>
                        <mxPoint x="1300" y="1200" as="targetPoint"/>
                        <Array as="points">
                            <mxPoint x="1400" y="250"/>
                            <mxPoint x="1400" y="1174"/>
                        </Array>
                    </mxGeometry>
                </mxCell>
                <mxCell id="E6eJDUrzSVMhKCiF-ykW-99" style="edgeStyle=orthogonalEdgeStyle;rounded=1;orthogonalLoop=1;jettySize=auto;html=1;startArrow=ERzeroToMany;startFill=0;endArrow=ERmandOne;endFill=0;startSize=15;endSize=15;strokeColor=default;strokeWidth=1;elbow=vertical;exitX=0;exitY=0.375;exitDx=0;exitDy=0;exitPerimeter=0;" parent="1" source="E6eJDUrzSVMhKCiF-ykW-89" target="E6eJDUrzSVMhKCiF-ykW-54" edge="1">
                    <mxGeometry relative="1" as="geometry">
                        <mxPoint x="998" y="909.9999999999999" as="targetPoint"/>
                        <mxPoint x="890" y="1200" as="sourcePoint"/>
                        <Array as="points">
                            <mxPoint x="850" y="1200"/>
                            <mxPoint x="850" y="1060"/>
                            <mxPoint x="998" y="1060"/>
                        </Array>
                    </mxGeometry>
                </mxCell>
                <mxCell id="E6eJDUrzSVMhKCiF-ykW-116" value="" style="edgeStyle=orthogonalEdgeStyle;fontSize=12;html=1;endArrow=ERmandOne;startArrow=ERzeroToMany;strokeWidth=1;rounded=1;endSize=15;startSize=15;startFill=0;endFill=0;entryX=0.29;entryY=0.971;entryDx=0;entryDy=0;entryPerimeter=0;" parent="1" target="xQEpdQuimWYe1z7LgiUK-110" edge="1">
                    <mxGeometry width="100" height="100" relative="1" as="geometry">
                        <mxPoint x="460" y="1176" as="sourcePoint"/>
                        <mxPoint x="480" y="280" as="targetPoint"/>
                        <Array as="points">
                            <mxPoint x="360" y="1176"/>
                            <mxPoint x="360" y="350"/>
                            <mxPoint x="491" y="350"/>
                        </Array>
                    </mxGeometry>
                </mxCell>
            </root>
        </mxGraphModel>
    </diagram>
</mxfile>